<?xml version="1.0" encoding="UTF-8"?>
<svg id="Layer_1" data-name="Layer 1" xmlns="http://www.w3.org/2000/svg" viewBox="0 0 167.13 169.11">
  <defs>
    <style>
      .cls-1 {
        fill: #114D55;
        stroke-width: 0px;
      }
    </style>
  </defs>
  <path class="cls-1" d="m150.28,0H16.85C7.54,0,0,7.57,0,16.91v135.3c0,9.34,7.54,16.91,16.85,16.91h133.43c9.31,0,16.85-7.57,16.85-16.91V16.91c0-9.34-7.54-16.91-16.85-16.91ZM53.63,133.81h-22.49V61.47h22.49v72.34Zm-11.39-81.22c-7.1,0-11.69-5.03-11.69-11.24s4.73-11.24,11.98-11.24,11.69,4.88,11.83,11.24c0,6.21-4.59,11.24-12.13,11.24Zm93.49,81.22h-22.48v-40.09c0-9.32-3.26-15.68-11.39-15.68-6.21,0-9.91,4.29-11.54,8.43-.59,1.48-.74,3.55-.74,5.62v41.72h-22.48v-49.26c0-9.02-.3-16.57-.59-23.08h19.53l1.04,10.06h.44c2.96-4.74,10.21-11.69,22.34-11.69,14.79,0,25.89,9.91,25.89,31.21v42.75Z"/>
</svg>