<?xml version="1.0" encoding="UTF-8"?>
<svg id="Layer_1" data-name="Layer 1" xmlns="http://www.w3.org/2000/svg" viewBox="0 0 173.84 169.68">
  <defs>
    <style>
      .cls-1 {
        fill: #3c5a14;
        stroke-width: 0px;
      }
    </style>
  </defs>
  <path class="cls-1" d="m173.84,91.61c-.31,2.69-.59,5.38-.95,8.06-1.59,11.83-5.63,22.79-11.96,32.88-7.07,11.27-16.09,20.68-27.36,27.85-5.9,3.75-12.18,6.69-18.79,8.91-3.66,1.23-6.19-.67-6.21-4.53-.04-7.58.01-15.16-.02-22.75-.02-4.62-.48-9.17-3.01-13.22-.74-1.18-1.67-2.24-2.54-3.39,3.39-.63,6.79-1.09,10.1-1.92,8.87-2.25,16.8-6.17,22.2-13.92,3.97-5.69,5.79-12.22,6.59-19.03.62-5.29.8-10.6-.32-15.87-1.12-5.3-3.41-10.05-6.96-14.14-.87-1.01-1.05-1.82-.62-3.13,2.33-7.05,1.36-13.95-1.26-20.71-.15-.39-.8-.75-1.27-.82-3.08-.46-5.99.41-8.69,1.69-4.38,2.07-8.62,4.45-12.96,6.61-.73.37-1.74.61-2.5.42-13.6-3.44-27.18-3.43-40.79,0-.8.2-1.92-.06-2.63-.52-5.52-3.52-11.35-6.3-17.69-7.98-.11-.03-.22-.07-.33-.09-3.99-.82-4.72-.36-5.85,3.5-1.84,6.23-2.17,12.44.02,18.67.17.49-.03,1.35-.38,1.75-7.16,8.14-8.86,17.8-7.97,28.21.54,6.31,2.01,12.37,4.83,18.07,3.9,7.87,10.51,12.68,18.51,15.51,5.02,1.77,10.35,2.7,15.62,4.02.04-.25.07-.05-.01.04-2.71,2.83-4.23,6.22-4.87,10.06-.08.49-.42,1.18-.8,1.33-6.04,2.27-12.11,3.47-18.08-.18-2.71-1.66-4.69-4.05-6.29-6.77-2.51-4.27-6.04-7.36-10.79-8.77-1.71-.51-3.66-.38-5.48-.27-1.24.07-1.65,1-.82,2.05.77.96,1.55,2.05,2.58,2.64,4.57,2.63,7.13,6.83,9.22,11.41,1.25,2.73,2.31,5.51,4.62,7.61,3.68,3.34,8.14,4.6,12.92,4.81,4.05.18,8.11.04,12.35.04,0-.06.08.37.08.79.06,4.58.12,9.17.16,13.75.03,4.49-2.66,6.34-6.91,4.86-22.07-7.66-38.26-22.17-49.06-42.67C1.3,111-1.27,94.42.56,77.11c1.92-18.12,9.1-33.99,21.06-47.6C34.13,15.28,49.7,5.83,68.31,2.04c27.03-5.5,51.72.02,73.34,17.4,16.39,13.17,26.53,30.31,30.62,50.95.6,3.04.83,6.16,1.24,9.24.08.6.22,1.2.32,1.8v10.19Z"/>
</svg>